<svg width="50" height="50" viewBox="0 0 50 50" fill="none" xmlns="http://www.w3.org/2000/svg">
<rect width="50" height="50" rx="8" fill="url(#paint0_linear_9526_13213)" fill-opacity="0.8"/>
<g clip-path="url(#clip0_9526_13213)">
<path d="M37.2846 23.2857C37.7578 23.2857 38.1618 23.4531 38.4967 23.7879C38.8315 24.1228 38.9989 24.5268 38.9989 25C38.9989 25.4732 38.8315 25.8772 38.4967 26.2121C38.1618 26.5469 37.7578 26.7143 37.2846 26.7143H37.0837L35.5435 35.5804C35.4721 35.9911 35.2757 36.3304 34.9542 36.5982C34.6328 36.8661 34.2667 37 33.856 37H16.7132C16.3025 37 15.9364 36.8661 15.615 36.5982C15.2935 36.3304 15.0971 35.9911 15.0257 35.5804L13.4855 26.7143H13.2846C12.8114 26.7143 12.4074 26.5469 12.0725 26.2121C11.7377 25.8772 11.5703 25.4732 11.5703 25C11.5703 24.5268 11.7377 24.1228 12.0725 23.7879C12.4074 23.4531 12.8114 23.2857 13.2846 23.2857H37.2846ZM18.0658 34C18.298 33.9821 18.4922 33.8817 18.6484 33.6987C18.8047 33.5156 18.8739 33.308 18.856 33.0759L18.4275 27.5045C18.4096 27.2723 18.3092 27.0781 18.1261 26.9219C17.9431 26.7656 17.7355 26.6964 17.5033 26.7143C17.2712 26.7321 17.077 26.8326 16.9208 27.0156C16.7645 27.1987 16.6953 27.4062 16.7132 27.6384L17.1417 33.2098C17.1596 33.433 17.2511 33.6205 17.4163 33.7723C17.5815 33.9241 17.7757 34 17.9989 34H18.0658ZM23.5703 33.1429V27.5714C23.5703 27.3393 23.4855 27.1384 23.3158 26.9688C23.1462 26.7991 22.9453 26.7143 22.7132 26.7143C22.481 26.7143 22.2801 26.7991 22.1105 26.9688C21.9408 27.1384 21.856 27.3393 21.856 27.5714V33.1429C21.856 33.375 21.9408 33.5759 22.1105 33.7455C22.2801 33.9152 22.481 34 22.7132 34C22.9453 34 23.1462 33.9152 23.3158 33.7455C23.4855 33.5759 23.5703 33.375 23.5703 33.1429ZM28.7132 33.1429V27.5714C28.7132 27.3393 28.6283 27.1384 28.4587 26.9688C28.2891 26.7991 28.0882 26.7143 27.856 26.7143C27.6239 26.7143 27.423 26.7991 27.2533 26.9688C27.0837 27.1384 26.9989 27.3393 26.9989 27.5714V33.1429C26.9989 33.375 27.0837 33.5759 27.2533 33.7455C27.423 33.9152 27.6239 34 27.856 34C28.0882 34 28.2891 33.9152 28.4587 33.7455C28.6283 33.5759 28.7132 33.375 28.7132 33.1429ZM33.4275 33.2098L33.856 27.6384C33.8739 27.4062 33.8047 27.1987 33.6484 27.0156C33.4922 26.8326 33.298 26.7321 33.0658 26.7143C32.8337 26.6964 32.6261 26.7656 32.4431 26.9219C32.26 27.0781 32.1596 27.2723 32.1417 27.5045L31.7132 33.0759C31.6953 33.308 31.7645 33.5156 31.9208 33.6987C32.077 33.8817 32.2712 33.9821 32.5033 34H32.5703C32.7935 34 32.9877 33.9241 33.1529 33.7723C33.3181 33.6205 33.4096 33.433 33.4275 33.2098ZM17.9453 16.9107L16.6998 22.4286H14.9319L16.2846 16.5223C16.4542 15.7366 16.8516 15.096 17.4766 14.6004C18.1016 14.1049 18.8158 13.8571 19.6194 13.8571H21.856C21.856 13.625 21.9408 13.4241 22.1105 13.2545C22.2801 13.0848 22.481 13 22.7132 13H27.856C28.0882 13 28.2891 13.0848 28.4587 13.2545C28.6283 13.4241 28.7132 13.625 28.7132 13.8571H30.9498C31.7533 13.8571 32.4676 14.1049 33.0926 14.6004C33.7176 15.096 34.115 15.7366 34.2846 16.5223L35.6373 22.4286H33.8694L32.6239 16.9107C32.5257 16.5179 32.3225 16.1964 32.0145 15.9464C31.7065 15.6964 31.3516 15.5714 30.9498 15.5714H28.7132C28.7132 15.8036 28.6283 16.0045 28.4587 16.1741C28.2891 16.3438 28.0882 16.4286 27.856 16.4286H22.7132C22.481 16.4286 22.2801 16.3438 22.1105 16.1741C21.9408 16.0045 21.856 15.8036 21.856 15.5714H19.6194C19.2176 15.5714 18.8627 15.6964 18.5547 15.9464C18.2467 16.1964 18.0435 16.5179 17.9453 16.9107Z" fill="white"/>
</g>
<defs>
<linearGradient id="paint0_linear_9526_13213" x1="-8.65385" y1="-2.88462" x2="56.7308" y2="50" gradientUnits="userSpaceOnUse">
<stop stop-color="#EF2DDC"/>
<stop offset="1" stop-color="#7443FF"/>
</linearGradient>
<clipPath id="clip0_9526_13213">
<rect width="27.43" height="24" fill="white" transform="translate(11.5703 13)"/>
</clipPath>
</defs>
</svg>
